<svg width="1400" height="1120" viewBox="0 0 1400 1120" fill="none" xmlns="http://www.w3.org/2000/svg">
  <defs>
    <linearGradient id="ctx-bg" x1="220" y1="96" x2="1186" y2="994" gradientUnits="userSpaceOnUse">
      <stop stop-color="#E7DED1"/>
      <stop offset="1" stop-color="#C8BAA8"/>
    </linearGradient>
    <linearGradient id="ctx-pod" x1="728" y1="242" x2="1018" y2="880" gradientUnits="userSpaceOnUse">
      <stop stop-color="#E1D2C1"/>
      <stop offset="1" stop-color="#857A6E"/>
    </linearGradient>
  </defs>
  <rect width="1400" height="1120" fill="url(#ctx-bg)"/>
  <rect x="0" y="794" width="1400" height="326" fill="#A8A18F"/>
  <rect x="86" y="132" width="246" height="712" rx="28" fill="#D8D4CC"/>
  <rect x="362" y="168" width="242" height="644" rx="24" fill="#ECE8E1"/>
  <rect x="666" y="128" width="504" height="852" rx="54" fill="#19201E"/>
  <rect x="698" y="160" width="440" height="788" rx="36" fill="#232A28"/>
  <rect x="736" y="208" width="364" height="708" rx="28" fill="url(#ctx-pod)"/>
  <rect x="786" y="266" width="264" height="598" rx="22" fill="#D8CCBF"/>
  <circle cx="910" cy="576" r="72" fill="#E7DBCD"/>
  <rect x="878" y="444" width="64" height="122" rx="32" fill="#E7DBCD"/>
  <rect x="850" y="724" width="144" height="122" rx="18" fill="#2A302E"/>
  <rect x="874" y="742" width="96" height="84" rx="12" fill="#D8CABA"/>
  <rect x="828" y="874" width="190" height="14" rx="7" fill="#616762"/>
  <circle cx="248" cy="742" r="54" fill="#D0C7B8"/>
  <rect x="226" y="648" width="44" height="88" rx="22" fill="#D0C7B8"/>
  <circle cx="484" cy="740" r="54" fill="#CCC3B5"/>
  <rect x="462" y="646" width="44" height="88" rx="22" fill="#CCC3B5"/>
</svg>
